# xmcd
#
# Track frame offsets: 
#        150
#        29047
#        46400
#        61365
#        73425
#        90392
#        115975
#        128460
#        146245
#        158630
#
# Disc length: 2498 seconds
#
# Revision: 5
# Processed by: cddbd v1.5.2PL0 Copyright (c) Steve Scherf et al.
# Submitted via: ExactAudioCopy v0.95a4
#
DISCID=9009c00a
DTITLE=Creedence Clearwater Revival - Pendulum
DYEAR=1970
DGENRE=Rock
TTITLE0=Pagan Baby
TTITLE1=Sailor's Lament
TTITLE2=Chameleon
TTITLE3=Have You Ever Seen The Rain?
TTITLE4=(Wish I Could) Hideaway
TTITLE5=Born To Move
TTITLE6=Hey Tonight
TTITLE7=It's Just A Thought
TTITLE8=Molina
TTITLE9=Rude Awakening #2
EXTD=Year: 1970\n
EXTT0=
EXTT1=
EXTT2=
EXTT3=
EXTT4=
EXTT5=
EXTT6=
EXTT7=
EXTT8=
EXTT9=
PLAYORDER=
